<?xml version="1.0" encoding="utf-8"?>
<!-- Generator: Adobe Illustrator 24.3.0, SVG Export Plug-In . SVG Version: 6.00 Build 0)  -->
<svg version="1.1" id="Layer_1" xmlns="http://www.w3.org/2000/svg" xmlns:xlink="http://www.w3.org/1999/xlink" x="0px" y="0px"
	 viewBox="0 0 288 144" style="enable-background:new 0 0 288 144;" xml:space="preserve">
<style type="text/css">
	.st0{fill:#739E82;}
	.st1{stroke:#231F20;stroke-width:0.5;stroke-miterlimit:10;}
</style>
<g>
	<path class="st0" d="M259.75,96.19c0,12.89-6.58,22.97-21.2,22.97c-12.58,0-20.05-6.28-20.05-17.12
		c0-15.35,10.39-26.17,10.24-44.45c0.15-9.93-3.5-14.62-13.16-14.62c-11.39,0-21.93,15.81-21.93,37.29
		c0,18.74,19.28,24.43,19.28,33.05c0,4.54-2.32,5.85-21.48,5.85c-13.01,0-14.93-1.04-14.93-5.7c0-9.81,9.35-18.13,9.35-34.36
		c0-11.7-10.24-36.71-21.63-36.71c-7.62,0-12.58,11.55-12.58,23.98c0,19.89,14.2,35.4,14.2,48.56c0,2.77-1.61,4.08-4.23,4.08
		c-1.46,0-7.92-0.73-12.89-0.73c-0.03-0.03-0.06-0.03-0.09,0c-2.86,0.18-6.31,0.46-9.41,0.46c-4.97,0-11.39,0.73-12.86,0.73
		c-2.65,0-4.27-1.34-4.27-4.11c0-13.16,14.2-28.67,14.2-48.53c0-12.43-4.97-24.01-12.58-24.01c-11.39,0-21.63,25.01-21.63,36.71
		c0,16.24,9.35,24.58,9.35,34.36c0,4.69-1.89,5.73-14.93,5.73c-19.16,0-21.48-1.34-21.48-5.88c0-8.62,19.28-14.32,19.28-33.02
		c0-21.51-10.51-37.29-21.93-37.29c-9.66,0-13.31,4.66-13.16,14.62c-0.15,18.28,10.24,29.09,10.24,44.45
		c0,10.82-7.46,17.12-20.02,17.12c-14.62,0-21.2-10.11-21.2-22.97c0-6.89,2.32-9.81,4.39-9.81c3.5,0,5.85,6.31,13.89,6.31
		c4.51,0,10.66-1.34,10.66-7.46c0-11.7-20.9-20.2-21.05-44.33c0.15-10.51,7.31-16.51,16.51-16.51c16.39,0,25.32,15.93,33.05,15.93
		c3.66,0,4.23-1.46,4.69-5.12c0.58-5.7,2.92-10.66,10.24-10.66c7.89,0,13.89,9.35,22.82,9.35c2.8,0,5.15-1.01,7.49-2.28
		c0.24-0.12,0.49-0.27,0.73-0.43c0.55-0.3,1.13-0.64,1.71-0.97c0.7-0.4,1.43-0.79,2.19-1.16c0.7-0.34,1.52-0.73,2.53-1.13
		c0.15-0.09,0.34-0.18,0.52-0.21c1.83-0.67,3.84-1.1,6.18-1.13c2.38,0.09,4.69,0.79,7.01,1.95c0.12,0.06,0.24,0.12,0.34,0.18
		c4.17,2.1,8.68,4.72,12.4,4.72c8.9,0,14.9-9.35,22.79-9.35c7.31,0,9.66,4.97,10.24,10.69c0.46,3.66,1.04,5.12,4.69,5.12
		c7.74,0,16.66-15.96,33.05-15.96c9.2,0,16.39,6,16.51,16.54c-0.12,24.13-21.05,32.6-21.05,44.3c0,6.15,6.15,7.46,10.69,7.46
		c8.04,0,10.36-6.28,13.89-6.28C257.4,86.41,259.75,89.33,259.75,96.19z"/>
</g>
<path class="st1" d="M142.97,114.62"/>
<path class="st1" d="M142.97,5.07"/>
</svg>
